<svg id="Layer_1" data-name="Layer 1" xmlns="http://www.w3.org/2000/svg" xmlns:xlink="http://www.w3.org/1999/xlink" viewBox="0 0 294 294"><defs><style>.cls-1{fill:url(#linear-gradient);}</style><linearGradient id="linear-gradient" x1="219.36" y1="430.06" x2="630.67" y2="37.78" gradientUnits="userSpaceOnUse"><stop offset="0" stop-color="#5bbf91"/><stop offset="0.98" stop-color="#337259"/></linearGradient></defs><title>key</title><path class="cls-1" d="M367.05,201c-50.13,0-90.75,39.5-90.75,88.2a86.05,86.05,0,0,0,13.6,46.48L163.81,461.77V495h66.47V459.21H258.4V428.53h35.79l51.46-53.61a92,92,0,0,0,21.4,2.48c50.14,0,90.76-39.5,90.76-88.2S417.19,201,367.05,201Zm25.57,81.81a24.29,24.29,0,1,1,24.28-24.29A24.28,24.28,0,0,1,392.62,282.81Z" transform="translate(-163.81 -201)"/></svg>